# xmcd
#
# Track frame offsets:
# 150
# 26487
# 47528
# 69750
# 83839
# 98789
# 115174
# 136774
# 153570
# 181249
# 197900
# 210788
# 231751
# 252279
# 268818
# 286882
#
# Disc length: 4082 seconds
#
#
# Revision: 0
# Processed by: cddbd v1.5.1PL0 Copyright (c) Steve Scherf et al.
# Submitted via: FreeRIP 2.35 
#
DISCID=d00ff010
DTITLE=Betty Jean Robinson - I Will Praise Him
DYEAR=1900
DGENRE=Gospel
TTITLE0=To The Glory Of My Father
TTITLE1=How Great Thou Art
TTITLE2=Holy Jesus
TTITLE3=Praise Him
TTITLE4=My Jesus I Love Thee
TTITLE5=Tis So Sweet To Trust In Jesus
TTITLE6=One With Him
TTITLE7=Oh What A Savior Is Mine
TTITLE8=There's Nothing Greater
TTITLE9=Oh How I Love Jesus
TTITLE10=He's All To Me
TTITLE11=Face To Face
TTITLE12=Hallelujah It's Jesus
TTITLE13=I Will Praise Him
TTITLE14=Blessed Assurance
TTITLE15=Wonderful Peace
EXTD=
EXTT0=
EXTT1=
EXTT2=
EXTT3=
EXTT4=
EXTT5=
EXTT6=
EXTT7=
EXTT8=
EXTT9=
EXTT10=
EXTT11=
EXTT12=
EXTT13=
EXTT14=
EXTT15=
PLAYORDER=
